<?xml version="1.0" encoding="UTF-8" standalone="no"?>
<!-- Generator: Adobe Illustrator 19.0.0, SVG Export Plug-In . SVG Version: 6.00 Build 0)  -->

<svg
   xmlns:dc="http://purl.org/dc/elements/1.1/"
   xmlns:cc="http://creativecommons.org/ns#"
   xmlns:rdf="http://www.w3.org/1999/02/22-rdf-syntax-ns#"
   xmlns:svg="http://www.w3.org/2000/svg"
   xmlns="http://www.w3.org/2000/svg"
   xmlns:sodipodi="http://sodipodi.sourceforge.net/DTD/sodipodi-0.dtd"
   xmlns:inkscape="http://www.inkscape.org/namespaces/inkscape"
   version="1.1"
   id="Layer_1"
   x="0px"
   y="0px"
   viewBox="0 0 80 70"
   xml:space="preserve"
   sodipodi:docname="marcador-de-posicion.svg"
   width="80"
   height="70"
   inkscape:version="0.92.4 (5da689c313, 2019-01-14)"><metadata
   id="metadata47"><rdf:RDF><cc:Work
       rdf:about=""><dc:format>image/svg+xml</dc:format><dc:type
         rdf:resource="http://purl.org/dc/dcmitype/StillImage" /><dc:title></dc:title></cc:Work></rdf:RDF></metadata><defs
   id="defs45" /><sodipodi:namedview
   pagecolor="#ffffff"
   bordercolor="#666666"
   borderopacity="1"
   objecttolerance="10"
   gridtolerance="10"
   guidetolerance="10"
   inkscape:pageopacity="0"
   inkscape:pageshadow="2"
   inkscape:window-width="1920"
   inkscape:window-height="1001"
   id="namedview43"
   showgrid="false"
   inkscape:zoom="3.6875"
   inkscape:cx="45.030176"
   inkscape:cy="40.393885"
   inkscape:window-x="-9"
   inkscape:window-y="-9"
   inkscape:window-maximized="1"
   inkscape:current-layer="Layer_1" />




<g
   id="g3757"
   transform="matrix(0.15625,0,0,0.16626447,0.27118697,-7.7675744)"><polygon
     id="polygon2"
     points="416,338.804 512,466.508 0,466.508 96,338.804 "
     style="fill:#333333" /><polyline
     id="polyline4"
     points="96,338.804 258.648,466.508 416,338.804 " /><path
     id="path6"
     d="m 256,391.516 97.576,-180.192 c 8.936,-16.056 14.072,-34.512 14.072,-54.192 0,-61.656 -49.984,-111.64 -111.64,-111.64 z"
     style="fill:#e21b1b"
     inkscape:connector-curvature="0" /><path
     id="path8"
     d="M 256,391.516 158.424,211.332 c -8.936,-16.056 -14.072,-34.512 -14.072,-54.192 0,-61.656 49.984,-111.64 111.64,-111.64 z"
     style="fill:#f91e1e"
     inkscape:connector-curvature="0" /><circle
     id="circle10"
     r="49.391998"
     cy="156.12399"
     cx="256"
     style="fill:#ffffff" /></g>
<g
   id="g12"
   transform="translate(0,-442)">
</g>
<g
   id="g14"
   transform="translate(0,-442)">
</g>
<g
   id="g16"
   transform="translate(0,-442)">
</g>
<g
   id="g18"
   transform="translate(0,-442)">
</g>
<g
   id="g20"
   transform="translate(0,-442)">
</g>
<g
   id="g22"
   transform="translate(0,-442)">
</g>
<g
   id="g24"
   transform="translate(0,-442)">
</g>
<g
   id="g26"
   transform="translate(0,-442)">
</g>
<g
   id="g28"
   transform="translate(0,-442)">
</g>
<g
   id="g30"
   transform="translate(0,-442)">
</g>
<g
   id="g32"
   transform="translate(0,-442)">
</g>
<g
   id="g34"
   transform="translate(0,-442)">
</g>
<g
   id="g36"
   transform="translate(0,-442)">
</g>
<g
   id="g38"
   transform="translate(0,-442)">
</g>
<g
   id="g40"
   transform="translate(0,-442)">
</g>
</svg>